{
	"asset":{
		"generator":"Khronos glTF Blender I/O v4.1.63",
		"version":"2.0"
	},
	"extensionsUsed":[
		"KHR_texture_transform"
	],
	"extensionsRequired":[
		"KHR_texture_transform"
	],
	"scene":0,
	"scenes":[
		{
			"name":"Scene",
			"nodes":[
				0
			]
		}
	],
	"nodes":[
		{
			"mesh":0,
			"name":"SM_Cliff_01",
			"translation":[
				0.9260608553886414,
				-5.814760684967041,
				0.10527202486991882
			]
		}
	],
	"materials":[
		{
			"name":"MI_Cliff_01_1_SM_Cliff_01",
			"normalTexture":{
				"index":0
			},
			"pbrMetallicRoughness":{
				"baseColorTexture":{
					"extensions":{
						"KHR_texture_transform":{
							"offset":[
								0.00014025672862771899,
								-0.2510492838919163
							],
							"scale":[
								1.001326560974121,
								1.273433804512024
							]
						}
					},
					"index":1,
					"texCoord":1
				},
				"metallicFactor":0,
				"roughnessFactor":0.5
			}
		}
	],
	"meshes":[
		{
			"name":"SM_Cliff_01",
			"primitives":[
				{
					"attributes":{
						"POSITION":0,
						"NORMAL":1,
						"TEXCOORD_0":2,
						"TEXCOORD_1":3
					},
					"indices":4,
					"material":0
				}
			]
		}
	],
	"textures":[
		{
			"sampler":0,
			"source":0
		},
		{
			"sampler":0,
			"source":1
		}
	],
	"images":[
		{
			"mimeType":"image/jpeg",
			"name":"T_Cliff_01_A_M_N",
			"uri":"T_Cliff_01_A_M_N.jpg"
		},
		{
			"mimeType":"image/jpeg",
			"name":"MI_Cliff_01_1_SM_Cliff_01_BaseColor",
			"uri":"MI_Cliff_01_1_SM_Cliff_01_BaseColor.jpg"
		}
	],
	"accessors":[
		{
			"bufferView":0,
			"componentType":5126,
			"count":451,
			"max":[
				0.16344787180423737,
				10.434226036071777,
				5.899425983428955
			],
			"min":[
				-5.063487529754639,
				-0.13058356940746307,
				4.365204811096191
			],
			"type":"VEC3"
		},
		{
			"bufferView":1,
			"componentType":5126,
			"count":451,
			"type":"VEC3"
		},
		{
			"bufferView":2,
			"componentType":5126,
			"count":451,
			"type":"VEC2"
		},
		{
			"bufferView":3,
			"componentType":5126,
			"count":451,
			"type":"VEC2"
		},
		{
			"bufferView":4,
			"componentType":5123,
			"count":1893,
			"type":"SCALAR"
		}
	],
	"bufferViews":[
		{
			"buffer":0,
			"byteLength":5412,
			"byteOffset":0,
			"target":34962
		},
		{
			"buffer":0,
			"byteLength":5412,
			"byteOffset":5412,
			"target":34962
		},
		{
			"buffer":0,
			"byteLength":3608,
			"byteOffset":10824,
			"target":34962
		},
		{
			"buffer":0,
			"byteLength":3608,
			"byteOffset":14432,
			"target":34962
		},
		{
			"buffer":0,
			"byteLength":3786,
			"byteOffset":18040,
			"target":34963
		}
	],
	"samplers":[
		{
			"magFilter":9729,
			"minFilter":9987
		}
	],
	"buffers":[
		{
			"byteLength":21828,
			"uri":"scene.bin"
		}
	]
}
