{
	"asset":{
		"generator":"Khronos glTF Blender I/O v4.0.44",
		"version":"2.0"
	},
	"extensionsUsed":[
		"KHR_texture_transform"
	],
	"extensionsRequired":[
		"KHR_texture_transform"
	],
	"scene":0,
	"scenes":[
		{
			"name":"Scene",
			"nodes":[
				0
			]
		}
	],
	"nodes":[
		{
			"mesh":0,
			"name":"SM_Cliff_01",
			"translation":[
				0,
				-9.548279762268066,
				0
			]
		}
	],
	"materials":[
		{
			"name":"MI_Cliff_01_1_SM_Cliff_01",
			"pbrMetallicRoughness":{
				"baseColorTexture":{
					"extensions":{
						"KHR_texture_transform":{
							"offset":[
								0.00014025672862771899,
								-0.2510492838919163
							],
							"scale":[
								1.001326560974121,
								1.273433804512024
							]
						}
					},
					"index":0,
					"texCoord":1
				},
				"metallicFactor":0,
				"metallicRoughnessTexture":{
					"extensions":{
						"KHR_texture_transform":{
							"offset":[
								0.00014025672862771899,
								-0.2510492838919163
							],
							"scale":[
								1.001326560974121,
								1.273433804512024
							]
						}
					},
					"index":1,
					"texCoord":1
				}
			}
		}
	],
	"meshes":[
		{
			"name":"SM_Cliff_01",
			"primitives":[
				{
					"attributes":{
						"POSITION":0,
						"NORMAL":1,
						"TEXCOORD_0":2,
						"TEXCOORD_1":3
					},
					"indices":4,
					"material":0
				}
			]
		}
	],
	"textures":[
		{
			"sampler":0,
			"source":0
		},
		{
			"sampler":0,
			"source":1
		}
	],
	"images":[
		{
			"mimeType":"image/png",
			"name":"MI_Cliff_01_1_SM_Cliff_01_BaseColor",
			"uri":"MI_Cliff_01_1_SM_Cliff_01_BaseColor.png"
		},
		{
			"mimeType":"image/png",
			"name":"MI_Cliff_01_1_SM_Cliff_01_MetallicRoughness",
			"uri":"MI_Cliff_01_1_SM_Cliff_01_MetallicRoughness.png"
		}
	],
	"accessors":[
		{
			"bufferView":0,
			"componentType":5126,
			"count":969,
			"max":[
				5.805656433105469,
				10.827299118041992,
				3.435159206390381
			],
			"min":[
				-3.010199546813965,
				3.497082471847534,
				-5.874719142913818
			],
			"type":"VEC3"
		},
		{
			"bufferView":1,
			"componentType":5126,
			"count":969,
			"type":"VEC3"
		},
		{
			"bufferView":2,
			"componentType":5126,
			"count":969,
			"type":"VEC2"
		},
		{
			"bufferView":3,
			"componentType":5126,
			"count":969,
			"type":"VEC2"
		},
		{
			"bufferView":4,
			"componentType":5123,
			"count":4605,
			"type":"SCALAR"
		}
	],
	"bufferViews":[
		{
			"buffer":0,
			"byteLength":11628,
			"byteOffset":0,
			"target":34962
		},
		{
			"buffer":0,
			"byteLength":11628,
			"byteOffset":11628,
			"target":34962
		},
		{
			"buffer":0,
			"byteLength":7752,
			"byteOffset":23256,
			"target":34962
		},
		{
			"buffer":0,
			"byteLength":7752,
			"byteOffset":31008,
			"target":34962
		},
		{
			"buffer":0,
			"byteLength":9210,
			"byteOffset":38760,
			"target":34963
		}
	],
	"samplers":[
		{
			"magFilter":9729,
			"minFilter":9987
		}
	],
	"buffers":[
		{
			"byteLength":47972,
			"uri":"scene.bin"
		}
	]
}
